<svg width="16" height="16" viewBox="0 0 16 16" fill="none" xmlns="http://www.w3.org/2000/svg">
<path fill-rule="evenodd" clip-rule="evenodd" d="M0.292893 7.29289C0.683418 6.90237 1.31658 6.90237 1.70711 7.29289L8 13.5858L14.2929 7.29289C14.6834 6.90237 15.3166 6.90237 15.7071 7.29289C16.0976 7.68342 16.0976 8.31658 15.7071 8.70711L8.70711 15.7071C8.31658 16.0976 7.68342 16.0976 7.29289 15.7071L0.292893 8.70711C-0.0976311 8.31658 -0.0976311 7.68342 0.292893 7.29289ZM7.29226 15.7065C7.11167 15.5256 7 15.2758 7 15V12.5858L8 13.5858L9 12.5858V15C9 15.2758 8.88832 15.5256 8.70772 15.7065C8.70534 15.7089 8.70295 15.7112 8.70055 15.7136C8.52079 15.8901 8.27463 15.9992 8.003 16M7.61722 15.9241C7.49788 15.8746 7.39021 15.8027 7.29945 15.7136C7.3938 15.8063 7.50195 15.8764 7.61722 15.9241ZM8 0C8.55229 0 9 0.447715 9 1V15C9 15.5523 8.55229 16 8 16C7.44772 16 7 15.5523 7 15V1C7 0.447715 7.44772 0 8 0Z" fill="#040404" fill-opacity="0.6"/>
</svg>
