<svg width="17" height="18" viewBox="0 0 17 18" fill="none" xmlns="http://www.w3.org/2000/svg">
<path d="M15.2903 7.50583C15.9624 7.50583 16.4665 8.0099 16.4665 8.68201C16.4665 9.01806 16.3405 9.3121 16.1304 9.52213C15.9204 9.73217 15.6264 9.85819 15.2903 9.85818L9.66146 9.85818L9.66146 15.487C9.66146 15.8231 9.53544 16.1171 9.32541 16.3272C9.11538 16.5372 8.82133 16.6632 8.48528 16.6632C7.81318 16.6632 7.3091 16.1591 7.3091 15.487L7.3091 9.85818L1.68025 9.85818C1.00815 9.85818 0.504076 9.35411 0.504076 8.68201C0.504076 8.00991 1.00815 7.50583 1.68025 7.50583L7.3091 7.50583L7.3091 1.87698C7.3091 1.20488 7.81318 0.700802 8.48528 0.700802C9.15738 0.700801 9.66146 1.20488 9.66146 1.87698L9.66146 7.50583L15.2903 7.50583Z" fill="#31BEC5"/>
</svg>
